<svg width="130" height="100" xmlns="http://www.w3.org/2000/svg"><path d="M81.21 6.8a6.87 6.87 0 0 0 1.55 4.353l26.306 32.077-102.371-.075c-3.68 0-6.688 3.052-6.695 6.802 0 3.736 2.993 6.793 6.68 6.8l102.334.075L82.76 88.85a6.887 6.887 0 0 0-1.55 4.352c0 2.023.876 3.92 2.406 5.215a6.544 6.544 0 0 0 4.888 1.555 6.587 6.587 0 0 0 4.53-2.418l35.422-43.2A6.864 6.864 0 0 0 130 50a6.844 6.844 0 0 0-1.551-4.352l-35.416-43.2A6.587 6.587 0 0 0 88.503.03a6.508 6.508 0 0 0-4.887 1.546A6.824 6.824 0 0 0 81.21 6.8z" fill="#FFF" fill-rule="evenodd"/></svg>