<svg width="278" height="89" xmlns="http://www.w3.org/2000/svg" xmlns:xlink="http://www.w3.org/1999/xlink"><defs><path id="a" d="M0 88.457h277.164V0H0v88.457z"/></defs><g fill="none" fill-rule="evenodd"><path d="M136.913 88.457h10.655v-67.42h-10.655v67.42z" fill="#00B4FF"/><path d="M111.988 15.723h40.908v10.63h-40.908v-10.63z" fill="#507AFF"/><path d="M152.895 5.093h30.35v10.63h-30.35V5.093z" fill="#DC32FF"/><path d="M158.222 21.038h-10.655v31.696h10.655V21.038z" fill="#B400C8"/><path d="M147.568 88.457h10.655V52.735h-10.655v35.722z" fill="#64DCFF"/><path d="M73.541 15.718c-17.141 0-31.087 13.914-31.087 31.016 0 .056.004.111.004.167H31.925c-.043-10.683 4.017-21.38 12.187-29.53C52.239 9.264 62.89 5.21 73.542 5.21c8.721 0 17.44 2.722 24.776 8.158l-6.355 8.403a30.97 30.97 0 0 0-18.422-6.052" fill="#B400C8"/><path d="M95.513 24.813a31.275 31.275 0 0 0-3.55-3.043l6.354-8.403a41.907 41.907 0 0 1 4.655 4.005l-7.459 7.44z" fill="#B400C8"/><path d="M73.541 77.75c8.571 0 16.343-3.478 21.972-9.094l7.458 7.44c-8.126 8.11-18.778 12.163-29.43 12.163-10.651 0-21.302-4.054-29.43-12.162C36.028 68.03 31.968 57.473 31.926 46.9h10.533c.091 17.026 13.998 30.85 31.083 30.85m168.893-11.856a20.228 20.228 0 0 0 7.472-4.718 20.112 20.112 0 0 0 5.949-14.33V5.34l10.66-.042.015 41.547c0 7.917-3.006 15.834-9.061 21.876-6.052 6.037-13.983 9.057-21.914 9.06l6.88-11.888z" fill="#FF32FF"/><path d="M235.556 67.11a20.32 20.32 0 0 0 6.88-1.216l-6.88 11.888V67.111z" fill="#FF32FF"/><path d="M228.683 65.906a20.337 20.337 0 0 0 6.86 1.205h.013v10.672l-6.873-11.877z" fill="#B400C8"/><path d="M213.617 68.721c-6.055-6.04-9.061-13.958-9.061-21.876l.021-41.525h10.654v41.525a20.111 20.111 0 0 0 5.95 14.33 20.223 20.223 0 0 0 7.502 4.73l6.872 11.877c-7.939.004-15.88-3.016-21.938-9.06" fill="#B400C8"/><path d="M204.556 46.619v.227c0 7.917 3.006 15.834 9.061 21.876 6.058 6.043 13.999 9.064 21.939 9.06l-5.887 10.173a41.466 41.466 0 0 1-23.556-11.747c-8.127-8.108-12.19-18.735-12.19-29.362v-.227h10.633z" fill="#00B4FF"/><path d="M193.923 5.209h10.654l-.02 41.41h-10.634V5.209z" fill="#64DCFF"/><path d="M235.556 88.37c-1.967 0-3.935-.139-5.886-.415l5.886-10.172V88.37z" fill="#00B4FF"/><path d="M257.47 68.721c6.055-6.04 9.061-13.958 9.061-21.876l-.021-41.504h10.654v41.504c0 10.628-4.064 21.255-12.19 29.363a41.461 41.461 0 0 1-23.533 11.744l-5.885-10.17c7.931-.002 15.862-3.023 21.914-9.06" fill="#507AFF"/><path d="M241.44 87.952c-1.95.277-3.917.418-5.884.418V77.782l5.885 10.17z" fill="#507AFF"/><path d="M235.411 77.783c1.406 0 2.78-.574 3.772-1.562a5.353 5.353 0 0 0 1.555-3.764 5.34 5.34 0 0 0-1.555-3.752 5.386 5.386 0 0 0-3.772-1.562c-1.396 0-2.77.574-3.761 1.562a5.352 5.352 0 0 0-1.566 3.752c0 1.403.576 2.774 1.566 3.764a5.378 5.378 0 0 0 3.761 1.562" fill="#B400C8"/><path d="M152.895 58.055a5.386 5.386 0 0 1-3.772-1.562 5.354 5.354 0 0 1-1.555-3.764c0-1.393.565-2.764 1.555-3.752a5.387 5.387 0 0 1 3.772-1.563c1.396 0 2.77.575 3.761 1.563a5.35 5.35 0 0 1 1.566 3.752 5.362 5.362 0 0 1-1.566 3.764 5.378 5.378 0 0 1-3.761 1.562" fill="#64DCFF"/><mask id="b" fill="#fff"><use xlink:href="#a"/></mask><path d="M0 35.983h10.654v52.474H0V35.983z" fill="#64DCFF" mask="url(#b)"/><path d="M0 5.341h10.655v30.642H0V5.341z" fill="#B400C8" mask="url(#b)"/><path d="M21.309 5.341H10.654V57.97H21.31V5.34z" fill="#507AFF" mask="url(#b)"/><path d="M21.309 57.968H10.654v30.428H21.31V57.968z" fill="#FF32FF" mask="url(#b)"/><path d="M15.982 52.735c1.405 0 2.78.574 3.77 1.561a5.353 5.353 0 0 1 1.557 3.764 5.34 5.34 0 0 1-1.556 3.752 5.386 5.386 0 0 1-3.771 1.563 5.38 5.38 0 0 1-3.762-1.563 5.352 5.352 0 0 1-1.566-3.752c0-1.403.576-2.774 1.566-3.764a5.38 5.38 0 0 1 3.762-1.561m21.266-.565c1.406 0 2.78-.574 3.772-1.562a5.354 5.354 0 0 0 1.555-3.764 5.342 5.342 0 0 0-1.555-3.752 5.387 5.387 0 0 0-3.772-1.562c-1.396 0-2.77.574-3.761 1.562a5.35 5.35 0 0 0-1.566 3.752c0 1.403.575 2.774 1.566 3.764a5.378 5.378 0 0 0 3.76 1.562" fill="#FF32FF" mask="url(#b)"/><path d="M199.13 52.054c1.406 0 2.78-.574 3.772-1.562a5.354 5.354 0 0 0 1.555-3.763 5.342 5.342 0 0 0-1.555-3.753 5.387 5.387 0 0 0-3.772-1.562c-1.396 0-2.77.575-3.761 1.562a5.35 5.35 0 0 0-1.566 3.753c0 1.403.576 2.774 1.566 3.763a5.378 5.378 0 0 0 3.761 1.562" fill="#64DCFF" mask="url(#b)"/><path d="M271.837 10.64c1.406 0 2.78-.574 3.772-1.562a5.354 5.354 0 0 0 1.555-3.763 5.342 5.342 0 0 0-1.555-3.753A5.387 5.387 0 0 0 271.837 0a5.38 5.38 0 0 0-3.762 1.562 5.35 5.35 0 0 0-1.565 3.753c0 1.402.575 2.774 1.565 3.763a5.378 5.378 0 0 0 3.762 1.562" fill="#507AFF" mask="url(#b)"/><path d="M261.183 10.64c1.406 0 2.78-.574 3.771-1.562a5.353 5.353 0 0 0 1.556-3.763 5.34 5.34 0 0 0-1.556-3.753A5.385 5.385 0 0 0 261.183 0a5.38 5.38 0 0 0-3.762 1.562 5.35 5.35 0 0 0-1.565 3.753c0 1.402.575 2.774 1.565 3.763a5.378 5.378 0 0 0 3.762 1.562" fill="#FF32FF" mask="url(#b)"/><path d="M152.896 15.723h30.349v10.63h-30.35v-10.63z" fill="#B400C8" mask="url(#b)"/><path d="M111.988 5.093h70.622v10.63h-70.622V5.093z" fill="#FF32FF" mask="url(#b)"/><path d="M152.895 26.358a5.386 5.386 0 0 1-3.772-1.562 5.354 5.354 0 0 1-1.555-3.763c0-1.393.565-2.765 1.555-3.753a5.387 5.387 0 0 1 3.772-1.562c1.396 0 2.77.574 3.761 1.562a5.35 5.35 0 0 1 1.566 3.753 5.362 5.362 0 0 1-1.566 3.763 5.378 5.378 0 0 1-3.761 1.562" fill="#B400C8" mask="url(#b)"/><path d="M87.904 61.064l7.609 7.591a31.247 31.247 0 0 1-4.974 4.029l-5.936-8.956a20.5 20.5 0 0 0 3.301-2.664" fill="#507AFF" mask="url(#b)"/><path d="M73.541 15.718c-17.141 0-31.087 13.914-31.087 31.016l.001.047h10.776l-.002-.047a20.109 20.109 0 0 1 5.95-14.33A20.202 20.202 0 0 1 73.54 26.47a20.2 20.2 0 0 1 11.08 3.28l6.664-8.463a30.955 30.955 0 0 0-17.743-5.57m21.972 9.096a31.342 31.342 0 0 0-4.229-3.525L84.62 29.75a20.51 20.51 0 0 1 3.285 2.653l7.608-7.591z" fill="#64DCFF" mask="url(#b)"/><path d="M59.178 61.064A20.202 20.202 0 0 0 73.541 67c3.99 0 7.798-1.148 11.062-3.273l5.937 8.957a30.951 30.951 0 0 1-17 5.066c-17.126 0-31.06-13.888-31.086-30.97H53.23a20.108 20.108 0 0 0 5.947 14.284" fill="#507AFF" mask="url(#b)"/></g></svg>