<svg width="44" height="92" xmlns="http://www.w3.org/2000/svg"><g fill="none" fill-rule="evenodd"><path d="M43.169 48.715V5.555h-.003c0-.009.003-.018.003-.028a5.556 5.556 0 0 0-1.614-3.902A5.577 5.577 0 0 0 37.642 0a5.563 5.563 0 0 0-3.901 1.625 5.568 5.568 0 0 0-1.626 3.902c0 .01.003.019.003.028h-.003l.022 43.16c0 8.233-3.119 16.467-9.401 22.749C16.458 77.744 8.23 80.882 0 80.887v11.01c2.04 0 4.081-.147 6.106-.435A42.991 42.991 0 0 0 30.523 79.25c8.431-8.433 12.646-19.484 12.646-30.535" fill="#4F7AFF"/><path d="M32.121 5.512h-.006a5.566 5.566 0 0 0-1.614-3.887A5.576 5.576 0 0 0 26.588 0a5.562 5.562 0 0 0-3.9 1.624 5.57 5.57 0 0 0-1.627 3.903l.003.027h-.003v43.16a20.927 20.927 0 0 1-6.173 14.9 20.924 20.924 0 0 1-7.75 4.909A21.017 21.017 0 0 1 0 69.789v11.098c8.23-.004 16.458-3.143 22.736-9.423 6.282-6.281 9.401-14.516 9.401-22.75l-.016-43.202z" fill="#F3F"/></g></svg>