<svg width="49" height="87" xmlns="http://www.w3.org/2000/svg"><g fill="none" fill-rule="evenodd"><path d="M20.608 66.441c-6.283-6.282-9.402-14.516-9.402-22.749v-.236H.174v.236c0 11.051 4.216 22.102 12.648 30.535a42.985 42.985 0 0 0 24.44 12.216c2.025.286 4.065.432 6.107.431V75.863c-8.237.004-16.476-3.135-22.76-9.422" fill="#00B5FF"/><path d="M11.228.393H.174v42.054c-.079.37-.125.746-.125 1.125 0 1.456.598 2.883 1.626 3.911a5.568 5.568 0 0 0 3.903 1.626 5.58 5.58 0 0 0 3.913-1.626 5.57 5.57 0 0 0 1.612-3.91c0-.042-.009-.078-.01-.117h.113L11.228.393z" fill="#63DBFF"/><path d="M48.747 70.326a5.565 5.565 0 0 0-1.614-3.902 5.584 5.584 0 0 0-3.764-1.61v-.048l-.012.001c-2.469 0-4.862-.444-7.118-1.253a20.997 20.997 0 0 1-7.785-4.92 20.928 20.928 0 0 1-6.172-14.901V.51H11.228l-.022 43.181c0 8.233 3.12 16.468 9.402 22.75C26.842 72.675 35 75.814 43.171 75.86c.016 0 .032.005.05.005l.03-.003h.118v-.013a5.57 5.57 0 0 0 3.764-1.61 5.573 5.573 0 0 0 1.614-3.913" fill="#B500C7"/></g></svg>