<svg width="74" height="49" xmlns="http://www.w3.org/2000/svg"><g fill="none" fill-rule="evenodd"><path d="M65.978 28.207c-5.841 5.841-13.905 9.458-22.797 9.458-17.428 0-31.659-13.9-32.223-31.194.056-.311.096-.626.096-.945A5.565 5.565 0 0 0 9.44 1.624 5.581 5.581 0 0 0 5.525 0a5.57 5.57 0 0 0-3.901 1.624A5.575 5.575 0 0 0 0 5.526c0 .02.004.04.004.058H.003c.045 10.994 4.256 21.973 12.643 30.363 8.433 8.43 19.484 12.646 30.535 12.646 11.053 0 22.104-4.216 30.536-12.646l-7.739-7.74z" fill="#F3F"/><path d="M58.084 20.313a21.193 21.193 0 0 1-3.425 2.769 20.917 20.917 0 0 1-11.477 3.403 20.94 20.94 0 0 1-14.902-6.172A20.928 20.928 0 0 1 22.11 5.46H10.929c.026 17.763 14.484 32.206 32.253 32.206a32.062 32.062 0 0 0 17.636-5.27 32.502 32.502 0 0 0 5.16-4.19l-7.894-7.893z" fill="#4F7AFF"/></g></svg>