<svg width="74" height="45" xmlns="http://www.w3.org/2000/svg"><g fill="none" fill-rule="evenodd"><path d="M68.884 9.42A43.067 43.067 0 0 0 43.178.934c-11.052 0-22.103 4.216-30.535 12.649C4.167 22.06-.045 33.181 0 44.29h10.93c-.002-.058-.007-.115-.007-.172 0-17.788 14.47-32.255 32.255-32.255 7.15 0 13.76 2.341 19.113 6.293a32.573 32.573 0 0 1 3.682 3.163l7.74-7.736a43.519 43.519 0 0 0-4.829-4.165z" fill="#B500C7"/><path d="M61.586 17.655a32.068 32.068 0 0 0-18.408-5.792c-17.785 0-32.255 14.468-32.255 32.255 0 .016.003.031.003.048h11.181c-.002-.017-.004-.032-.004-.048 0-5.63 2.192-10.92 6.173-14.902a20.935 20.935 0 0 1 14.902-6.174c4.144 0 8.102 1.198 11.493 3.416a21.159 21.159 0 0 1 3.408 2.756l7.894-7.894a32.57 32.57 0 0 0-4.387-3.665" fill="#63DBFF"/></g></svg>